

<svg width="620" height="60" xmlns="http://www.w3.org/2000/svg" style="background-color:white">

  <!-- 0 -->
  <g transform="translate(10,10)">
    <rect width="60" height="30"  fill="transparent" stroke="black"/>
    <text x="30" y="15" text-anchor="middle" dominant-baseline="middle">.</text>
    <text x="30" y="45" text-anchor="middle">0</text>
  </g>

  <!-- 1 -->
  <g transform="translate(70,10)">
    <rect width="60" height="30"  fill="transparent" stroke="black"/>
    <text x="30" y="15" style="font-style:italic;font-size:16px;" text-anchor="middle" dominant-baseline="middle">e
        <tspan dx="-3" dy="8" font-size="10px">id=1</tspan></text>
    <text x="30" y="45" text-anchor="middle">1</text>
  </g>

  <!-- 2 -->
  <g transform="translate(130,10)">
    <rect width="60" height="30"  fill="transparent"  stroke="black"/>
    <text x="30" y="15" text-anchor="middle" dominant-baseline="middle">.</text>
    <text x="30" y="45" text-anchor="middle">2</text>
  </g>

  <!-- 3 -->
  <g transform="translate(190,10)">
    <rect width="60" height="30"  fill="transparent" stroke="black"/>
    <text x="30" y="15" style="font-style:italic;font-size:16px;" text-anchor="middle" dominant-baseline="middle">e
        <tspan dx="-3" dy="8" font-size="10px">id=3</tspan></text>
    <text x="30" y="45" text-anchor="middle">3</text>
  </g>

  <!-- 4 -->
  <g transform="translate(250,10)">
    <rect width="60" height="30"  fill="transparent" stroke="black"/>
    <text x="30" y="15" text-anchor="middle" dominant-baseline="middle">.</text>
    <text x="30" y="45" text-anchor="middle">4</text>
  </g>

  <!-- 5 -->
  <g transform="translate(310,10)">
    <rect width="60" height="30"  fill="transparent" stroke="black"/>
    <text x="30" y="15" style="font-style:italic;font-size:16px;" text-anchor="middle" dominant-baseline="middle">e
        <tspan dx="-3" dy="8" font-size="10px">id=5</tspan></text>
    <text x="30" y="45" text-anchor="middle">5</text>
  </g>

  <!-- 6 -->
  <g transform="translate(370,10)">
    <rect width="60" height="30"  fill="transparent" stroke="black"/>
    <text x="30" y="15" style="font-style:italic;font-size:16px;" text-anchor="middle" dominant-baseline="middle">e
        <tspan dx="-3" dy="8" font-size="10px">id=25</tspan></text>
    <text x="30" y="45" text-anchor="middle">6</text>
  </g>

  <!-- 7 -->
  <g transform="translate(430,10)">
    <rect width="60" height="30"  fill="transparent" stroke="black"/>
    <text x="30" y="15" style="font-style:italic;font-size:16px;" text-anchor="middle" dominant-baseline="middle">e
        <tspan dx="-3" dy="8" font-size="10px">id=55</tspan></text>
    <text x="30" y="45" text-anchor="middle">7</text>
  </g>

  <!-- 8 -->
  <g transform="translate(490,10)">
    <rect width="60" height="30"  fill="transparent"  stroke="black"/>
    <text x="30" y="15" text-anchor="middle" dominant-baseline="middle">.</text>
    <text x="30" y="45" text-anchor="middle">8</text>
  </g>

  <!-- 9 -->
  <g transform="translate(550,10)">
    <rect width="60" height="30"  fill="transparent" stroke="black"/>
    <text x="30" y="15" text-anchor="middle" dominant-baseline="middle">.</text>
    <text x="30" y="45" text-anchor="middle">9</text>
  </g>
</svg>
