<!-- Created with Inkscape (http://www.inkscape.org/) -->

<svg width="600" height="60" xmlns="http://www.w3.org/2000/svg">

<!-- array boxes and indices -->
  <path d="M10 10 H 510 V 40 H 10 V 10" fill="transparent" stroke="black"/>
  <path d="M50 10 V 40
    m 50 -30 V 40
    m 50 -30 V 40
    m 50 -30 V 40
    m 50 -30 V 40
    m 50 -30 V 40
    m 50 -30 V 40
    m 50 -30 V 40
    m 50 -30 V 40
    m 50 -30 V 40
    "
    fill="transparent" stroke="black"/>
  <text x="27" y="60">0
    <tspan dx="34">1</tspan>
    <tspan dx="34">2</tspan>
    <tspan dx="34">3</tspan>
    <tspan dx="34">4</tspan>
    <tspan dx="34">5</tspan>
    <tspan dx="34">6</tspan>
    <tspan dx="34">7</tspan>
    <tspan dx="34">8</tspan>
    <tspan dx="34">9</tspan>
  </text>

<!-- text inside array -->

  <text x="25" y="27" style="font-size:20px;">.</text>
  <text x="65" y="27" style="font-size:20px;">.</text>
  <text x="105" y="27" style="font-size:20px;">.</text>
  <text x="140" y="30" style="font-style:italic;font-size:16px;">e
      <tspan dx="-3" dy="2" font-size="10px">id=3</tspan></text>
  <text x="190" y="30" style="font-style:italic;font-size:16px;">e
      <tspan dx="-3" dy="2" font-size="10px">id=4</tspan></text>
  <text x="240" y="30" style="font-style:italic;font-size:16px;">e
      <tspan dx="-3" dy="2" font-size="10px">id=5</tspan></text>
  <text x="295" y="27" style="font-size:20px;">.</text>
  <text x="335" y="27" style="font-size:20px;">.</text>
  <text x="370" y="30" style="font-style:italic;font-size:16px;">e
      <tspan dx="-3" dy="2" font-size="10px">id=8</tspan></text>
  <text x="425" y="27" style="font-size:20px;">.</text>

</svg>
