<svg width="620" height="60" xmlns="http://www.w3.org/2000/svg" style="background-color:white">

  <!-- 0 -->
  <g transform="translate(10,10)">
    <rect width="60" height="30"  fill="transparent" stroke="black"/>
    <text x="30" y="15" text-anchor="middle" dominant-baseline="middle">.</text>
    <text x="30" y="45" text-anchor="middle">0</text>
  </g>

  <!-- 1 -->
  <g transform="translate(70,10)">
    <rect width="60" height="30"  fill="transparent" stroke="black"/>
    <text x="30" y="15" text-anchor="middle" dominant-baseline="middle">.</text>
    <text x="30" y="45" text-anchor="middle">1</text>
  </g>

  <!-- ... -->
  <g transform="translate(130,10)">
    <path d="M 0 0 H 10 M 0 30 H 10 M 50 0 H 60 M 50 30 H 60 " fill="transparent" stroke="black"/>
    <text x="30" y="15" text-anchor="middle" dominant-baseline="middle">...</text>
  </g>

  <!-- 11314 -->
  <g transform="translate(190,10)">
    <rect width="60" height="30"  fill="transparent" stroke="black"/>
    <text x="30" y="15" style="font-style:italic;font-size:16px;" text-anchor="middle" dominant-baseline="middle">e
        <tspan dx="-3" dy="8" font-size="10px">id=11314</tspan></text>
    <text x="30" y="45" text-anchor="middle">11314</text>
  </g>

  <!-- ... -->
  <g transform="translate(250,10)">
    <path d="M 0 0 H 10 M 0 30 H 10 M 50 0 H 60 M 50 30 H 60 " fill="transparent" stroke="black"/>
    <text x="30" y="15" text-anchor="middle" dominant-baseline="middle">...</text>
  </g>

  <!-- 12128 -->
  <g transform="translate(310,10)">
    <rect width="60" height="30"  fill="transparent" stroke="black"/>
    <text x="30" y="15" style="font-style:italic;font-size:16px;" text-anchor="middle" dominant-baseline="middle">e
        <tspan dx="-3" dy="8" font-size="10px">id=12128</tspan></text>
    <text x="30" y="45" text-anchor="middle">12128</text>
  </g>

  <!-- ... -->
  <g transform="translate(370,10)">
    <path d="M 0 0 H 10 M 0 30 H 10 M 50 0 H 60 M 50 30 H 60 " fill="transparent" stroke="black"/>
    <text x="30" y="15" text-anchor="middle" dominant-baseline="middle">...</text>
  </g>


  <!-- 12343 -->
  <g transform="translate(430,10)">
    <rect width="60" height="30"  fill="transparent" stroke="black"/>
    <text x="30" y="15" style="font-style:italic;font-size:16px;" text-anchor="middle" dominant-baseline="middle">e
        <tspan dx="-3" dy="8" font-size="10px">id=12343</tspan></text>
    <text x="30" y="45" text-anchor="middle">12343</text>
  </g>


  <!-- ... -->
  <g transform="translate(490,10)">
    <path d="M 0 0 H 10 M 0 30 H 10 " fill="transparent" stroke="black"/>
    <text x="30" y="15" text-anchor="middle" dominant-baseline="middle">...</text>
  </g>


</svg>
